<?xml version="1.0" encoding="UTF-8"?>
<svg version="1.1" xmlns="http://www.w3.org/2000/svg" width="198" height="198">
<path d="M0 0 C65.34 0 130.68 0 198 0 C198 65.34 198 130.68 198 198 C132.66 198 67.32 198 0 198 C0 132.66 0 67.32 0 0 Z " fill="#68AB30" transform="translate(0,0)"/>
<path d="M0 0 C29 0 29 0 41 6 C43.1462701 9.71469824 44 11.64144712 44 16 C44.66 16 45.32 16 46 16 C46 22.27 46 28.54 46 35 C45.34 35 44.68 35 44 35 C43.67 36.65 43.34 38.3 43 40 C42.01 40 41.02 40 40 40 C39.34 41.98 38.68 43.96 38 46 C38.99 46.66 39.98 47.32 41 48 C41 48.66 41 49.32 41 50 C41.66 50 42.32 50 43 50 C48.4696138 58.8555652 50.16685652 63.77116261 48 74 C47.67516582 75.33542939 47.3449145 76.66961551 47 78 C46.34 78 45.68 78 45 78 C45 79.32 45 80.64 45 82 C44.34 82 43.68 82 43 82 C42.9175 82.61875 42.835 83.2375 42.75 83.875 C42 86 42 86 39.9375 87.25 C39.298125 87.4975 38.65875 87.745 38 88 C38 88.99 38 89.98 38 91 C25.46 91 12.92 91 0 91 C0 60.97 0 30.94 0 0 Z " fill="#F9FBF7" transform="translate(0,107)"/>
<path d="M0 0 C0 0.66 0 1.32 0 2 C0.57878906 2.11214844 1.15757813 2.22429687 1.75390625 2.33984375 C8.23108207 4.24357021 12.81380289 9.34258964 16.03515625 15.05859375 C18.61118463 20.24193829 19.07453529 24.24723043 19 30 C16.52076199 30.02685095 14.0418116 30.04676547 11.5625 30.0625 C10.85544922 30.07087891 10.14839844 30.07925781 9.41992188 30.08789062 C7.61306441 30.09653588 5.80612397 30.05220011 4 30 C2.01360545 28.01360545 2.20065745 24.33702152 1.79296875 21.640625 C0.76226563 18.20833283 -0.33721286 16.42110792 -3 14 C-5.81239326 13.62601153 -7.97592155 13.51706985 -10.75 13.6875 C-11.79607422 13.72133789 -11.79607422 13.72133789 -12.86328125 13.75585938 C-14.57644935 13.81452952 -16.28850623 13.90420744 -18 14 C-18 14.66 -18 15.32 -18 16 C-18.66 16 -19.32 16 -20 16 C-20.76884208 19.42238648 -21.13355255 22.60131113 -21.16113281 26.10644531 C-21.17074036 27.09807678 -21.1803479 28.08970825 -21.19024658 29.11138916 C-21.19449646 30.17291199 -21.19874634 31.23443481 -21.203125 32.328125 C-21.20882507 33.43170349 -21.21452515 34.53528198 -21.22039795 35.67230225 C-21.22983301 38.00564622 -21.23637599 40.33900342 -21.24023438 42.67236328 C-21.2499269 46.22322119 -21.28095993 49.77349688 -21.3125 53.32421875 C-21.31903199 55.59635075 -21.32428169 57.86848686 -21.328125 60.140625 C-21.3404718 61.1940509 -21.3528186 62.24747681 -21.36553955 63.33282471 C-21.34526455 70.11732855 -21.04148001 77.23033267 -16.60552979 82.72833252 C-13.92016067 84.85529186 -11.13664687 84.27899028 -7.8125 84.1875 C-6.54019531 84.16042969 -5.26789063 84.13335937 -3.95703125 84.10546875 C-2.98121094 84.07066406 -2.00539062 84.03585938 -1 84 C-0.67 82.35 -0.34 80.7 0 79 C0.66 79 1.32 79 2 79 C2.04898438 78.37351562 2.09796875 77.74703125 2.1484375 77.1015625 C2.22320312 76.28429687 2.29796875 75.46703125 2.375 74.625 C2.44460937 73.81289062 2.51421875 73.00078125 2.5859375 72.1640625 C3 70 3 70 5 68 C8.2578125 67.8046875 8.2578125 67.8046875 12.125 67.875 C14.04699219 67.90207031 14.04699219 67.90207031 16.0078125 67.9296875 C17.48894531 67.96449219 17.48894531 67.96449219 19 68 C19 70.97 19 73.94 19 77 C18.34 77 17.68 77 17 77 C17 78.98 17 80.96 17 83 C16.34 83 15.68 83 15 83 C14.7525 83.721875 14.505 84.44375 14.25 85.1875 C12.80208401 88.44531098 11.56412046 90.4965367 9 93 C6.11686365 93.52163902 3.82838702 93.72613852 0.9453125 93.69921875 C0.16614471 93.70637405 -0.61302307 93.71352936 -1.415802 93.72090149 C-3.06153216 93.72867282 -4.70736552 93.72367807 -6.35302734 93.70678711 C-8.86104926 93.68760669 -11.36349111 93.72689054 -13.87109375 93.77148438 C-15.47396161 93.77177486 -17.07683452 93.76863161 -18.6796875 93.76171875 C-19.79559769 93.78464241 -19.79559769 93.78464241 -20.93405151 93.80802917 C-25.10255063 93.7155983 -27.49109556 92.98807274 -30.43408203 90.14770508 C-34.06821997 86.13987716 -35 82.37017868 -35 77 C-35.66 77 -36.32 77 -37 77 C-37.09301622 69.44564893 -37.16392438 61.89135786 -37.20724869 54.33656311 C-37.22805108 50.82784681 -37.25623163 47.31952467 -37.30175781 43.81103516 C-37.35386357 39.76982007 -37.37300577 35.72901371 -37.390625 31.6875 C-37.41127014 30.4382373 -37.43191528 29.18897461 -37.45318604 27.90185547 C-37.45544231 19.0849247 -36.30463297 13.7767234 -30.375 7 C-28 5 -28 5 -26 5 C-26 4.34 -26 3.68 -26 3 C-17.40490715 -0.75058597 -9.19378855 -0.28499689 0 0 Z " fill="#F7FAF4" transform="translate(97,105)"/>
<path d="M0 0 C4.62 0 9.24 0 14 0 C14 30.03 14 60.06 14 91 C9.38 91 4.76 91 0 91 C0 60.97 0 30.94 0 0 Z " fill="#F3F8EF" transform="translate(128,107)"/>
<path d="M0 0 C18.31428571 0 18.31428571 0 23.9375 4.1875 C27.22195249 8.57771816 26.66253053 14.30818889 26.76171875 19.5390625 C26 23 26 23 23.08203125 25.4609375 C20 27 20 27 18 27 C18 27.66 18 28.32 18 29 C12.06 29 6.12 29 0 29 C0 19.43 0 9.86 0 0 Z " fill="#69AB30" transform="translate(9,159)"/>
<path d="M0 0 C2.51625 -0.0825 5.0325 -0.165 7.625 -0.25 C8.79603271 -0.30462402 8.79603271 -0.30462402 9.99072266 -0.36035156 C13.70017419 -0.41873846 16.01280674 0.00537426 19.5 1.46875 C22.16609241 4.16816856 22.38540631 4.56005228 22.5859375 8.109375 C22.54624613 9.65733841 22.47494113 11.20475637 22.375 12.75 C22.34792969 13.54277344 22.32085938 14.33554688 22.29296875 15.15234375 C22.22247273 17.10273366 22.11485499 19.05171901 22 21 C20.02 21.99 20.02 21.99 18 23 C18 23.66 18 24.32 18 25 C13 27 13 27 0 27 C0 18.09 0 9.18 0 0 Z " fill="#70AF3A" transform="translate(9,120)"/>
<path d="M0 0 C1.32 0 2.64 0 4 0 C4 2.31 4 4.62 4 7 C6.64 7 9.28 7 12 7 C11.67 8.65 11.34 10.3 11 12 C9.02 12 7.04 12 5 12 C5 14.31 5 16.62 5 19 C3.68 19 2.36 19 1 19 C0.67 16.36 0.34 13.72 0 11 C-2.97 10.505 -2.97 10.505 -6 10 C-6 9.34 -6 8.68 -6 8 C-4.02 8 -2.04 8 0 8 C0 5.36 0 2.72 0 0 Z " fill="#AED18F" transform="translate(133,72)"/>
<path d="M0 0 C0.66 0.33 1.32 0.66 2 1 C1.071875 1.763125 0.14375 2.52625 -0.8125 3.3125 C-7.84840841 10.41236008 -7.45845712 21.51447709 -7.51171875 30.88671875 C-7.52966995 32.06974075 -7.54762115 33.25276276 -7.56611633 34.47163391 C-7.61983188 38.21022084 -7.65399071 41.94868297 -7.6875 45.6875 C-7.72070723 48.23894952 -7.75519999 50.79038264 -7.79101562 53.34179688 C-7.87553583 59.56108587 -7.94404797 65.78039183 -8 72 C-8.33 72 -8.66 72 -9 72 C-9.09301622 64.44564893 -9.16392438 56.89135786 -9.20724869 49.33656311 C-9.22805108 45.82784681 -9.25623163 42.31952467 -9.30175781 38.81103516 C-9.35386357 34.76982007 -9.37300577 30.72901371 -9.390625 26.6875 C-9.41127014 25.4382373 -9.43191528 24.18897461 -9.45318604 22.90185547 C-9.45538102 14.3244524 -8.42777388 8.3358144 -2.25 2 C-1.5075 1.34 -0.765 0.68 0 0 Z " fill="#BEDAA6" transform="translate(69,110)"/>
<path d="M0 0 C2.73691161 1.3684558 2.98070948 2.81936917 4.125 5.625 C4.47820312 6.46289062 4.83140625 7.30078125 5.1953125 8.1640625 C6.15112946 11.53262129 6.12905163 14.51560597 6 18 C3.52076199 18.02685095 1.0418116 18.04676547 -1.4375 18.0625 C-2.14455078 18.07087891 -2.85160156 18.07925781 -3.58007812 18.08789062 C-5.38693559 18.09653588 -7.19387603 18.05220011 -9 18 C-11.0103554 15.9896446 -10.86199466 12.26754198 -11.3046875 9.54296875 C-12.06102997 6.77679488 -13.15264057 5.16534753 -15 3 C-11.83884224 4.36983503 -11.0072908 4.9890638 -9 8 C-8.29187186 10.32108669 -7.61975848 12.65377147 -7 15 C-3.7 15.33 -0.4 15.66 3 16 C2.48400727 11.01207025 1.69482043 6.74549721 0 2 C0 1.34 0 0.68 0 0 Z " fill="#BBD8A2" transform="translate(110,117)"/>
<path d="M0 0 C15.75 0 15.75 0 21 2 C21 2.66 21 3.32 21 4 C20.01 4 19.02 4 18 4 C18 3.34 18 2.68 18 2 C12.39 2 6.78 2 1 2 C1 10.58 1 19.16 1 28 C6.61 28 12.22 28 18 28 C18 28.33 18 28.66 18 29 C12.06 29 6.12 29 0 29 C0 19.43 0 9.86 0 0 Z " fill="#90C166" transform="translate(9,159)"/>
<path d="M0 0 C1.27617188 0.02320313 2.55234375 0.04640625 3.8671875 0.0703125 C5.78917969 0.09738281 5.78917969 0.09738281 7.75 0.125 C9.23113281 0.15980469 9.23113281 0.15980469 10.7421875 0.1953125 C10.7421875 3.1653125 10.7421875 6.1353125 10.7421875 9.1953125 C10.0821875 9.1953125 9.4221875 9.1953125 8.7421875 9.1953125 C8.7421875 11.1753125 8.7421875 13.1553125 8.7421875 15.1953125 C8.0821875 15.1953125 7.4221875 15.1953125 6.7421875 15.1953125 C6.4121875 15.8553125 6.0821875 16.5153125 5.7421875 17.1953125 C5.7421875 15.5453125 5.7421875 13.8953125 5.7421875 12.1953125 C6.4021875 12.1953125 7.0621875 12.1953125 7.7421875 12.1953125 C7.7421875 10.5453125 7.7421875 8.8953125 7.7421875 7.1953125 C8.4021875 7.1953125 9.0621875 7.1953125 9.7421875 7.1953125 C9.7421875 5.2153125 9.7421875 3.2353125 9.7421875 1.1953125 C5.7821875 1.1953125 1.8221875 1.1953125 -2.2578125 1.1953125 C-2.2578125 3.1753125 -2.2578125 5.1553125 -2.2578125 7.1953125 C-2.9178125 7.1953125 -3.5778125 7.1953125 -4.2578125 7.1953125 C-4.5878125 8.8453125 -4.9178125 10.4953125 -5.2578125 12.1953125 C-6.2478125 12.5253125 -7.2378125 12.8553125 -8.2578125 13.1953125 C-8.2578125 12.5353125 -8.2578125 11.8753125 -8.2578125 11.1953125 C-7.5978125 11.1953125 -6.9378125 11.1953125 -6.2578125 11.1953125 C-6.20882812 10.56882813 -6.15984375 9.94234375 -6.109375 9.296875 C-5.99722656 8.07097656 -5.99722656 8.07097656 -5.8828125 6.8203125 C-5.81320313 6.00820312 -5.74359375 5.19609375 -5.671875 4.359375 C-4.95354224 0.60506981 -3.70803722 0.22230439 0 0 Z " fill="#AED190" transform="translate(105.2578125,172.8046875)"/>
<path d="M0 0 C1.8125 0.125 1.8125 0.125 4 1 C6.28905989 4.67884625 7 6.61551956 7 11 C7.66 11 8.32 11 9 11 C9 17.27 9 23.54 9 30 C8.34 30 7.68 30 7 30 C6.505 32.475 6.505 32.475 6 35 C4.46554906 31.93109813 5.45015711 29.29905734 6 26 C6.66 26 7.32 26 8 26 C7.85950482 24.52031676 7.71245174 23.04125484 7.5625 21.5625 C7.48128906 20.73878906 7.40007813 19.91507813 7.31640625 19.06640625 C7.21069185 17.01337975 7.21069185 17.01337975 6 16 C5.70368235 14.44213197 5.43794981 12.8783965 5.1875 11.3125 C4.30418729 6.61273693 2.94519528 3.73058068 0 0 Z " fill="#B7D69D" transform="translate(37,112)"/>
<path d="M0 0 C2.67201321 1.33600661 2.98572174 2.18156306 4 5 C4.13997227 7.78824758 4.1888913 10.46827116 4.125 13.25 C4.11597656 13.99507812 4.10695313 14.74015625 4.09765625 15.5078125 C4.07418358 17.33868059 4.03831525 19.16938238 4 21 C3.34 21 2.68 21 2 21 C2 22.65 2 24.3 2 26 C1.34 26 0.68 26 0 26 C0 26.66 0 27.32 0 28 C-0.66 28 -1.32 28 -2 28 C-2.061875 28.598125 -2.12375 29.19625 -2.1875 29.8125 C-3.3236757 32.87143458 -5.17330142 33.55041099 -8 35 C-8 34.34 -8 33.68 -8 33 C-7.360625 32.525625 -6.72125 32.05125 -6.0625 31.5625 C-3.71627037 30.0908635 -3.71627037 30.0908635 -3 27 C-2.34 27 -1.68 27 -1 27 C-1 25.68 -1 24.36 -1 23 C-0.34 23 0.32 23 1 23 C1.22314035 20.29216168 1.42889462 17.58481976 1.625 14.875 C1.68945312 14.11445313 1.75390625 13.35390625 1.8203125 12.5703125 C2.14331622 7.88675858 1.85138316 4.42353381 0 0 Z " fill="#B0D393" transform="translate(46,162)"/>
<path d="M0 0 C0 0.66 0 1.32 0 2 C-0.95519531 2.04898438 -1.91039063 2.09796875 -2.89453125 2.1484375 C-10.73815629 2.60200704 -18.29791643 3.35069728 -26 5 C-26 4.34 -26 3.68 -26 3 C-17.40490715 -0.75058597 -9.19378855 -0.28499689 0 0 Z " fill="#C5DEB1" transform="translate(97,105)"/>
<path d="M0 0 C0.33 0 0.66 0 1 0 C1.66 2.31 2.32 4.62 3 7 C4.65 7.33 6.3 7.66 8 8 C8 8.33 8 8.66 8 9 C6.35 9.33 4.7 9.66 3 10 C2.67 12.31 2.34 14.62 2 17 C1.34 17 0.68 17 0 17 C-0.33 14.69 -0.66 12.38 -1 10 C-3.97 9.505 -3.97 9.505 -7 9 C-7 8.34 -7 7.68 -7 7 C-5.02 6.67 -3.04 6.34 -1 6 C-0.67 4.02 -0.34 2.04 0 0 Z " fill="#E8F1E0" transform="translate(134,73)"/>
<path d="M0 0 C0.66 0.33 1.32 0.66 2 1 C1.071875 1.763125 0.14375 2.52625 -0.8125 3.3125 C-6.417263 8.89082544 -7.15937931 17.43441381 -8 25 C-8.33 25 -8.66 25 -9 25 C-9.50947768 16.5087054 -9.33863057 10.02691191 -3.62109375 3.40234375 C-2.46322266 2.21808243 -1.23789133 1.10034785 0 0 Z " fill="#B1D394" transform="translate(69,110)"/>
<path d="M0 0 C14.78132118 -0.3690205 14.78132118 -0.3690205 21 2 C21 2.66 21 3.32 21 4 C20.01 4 19.02 4 18 4 C18 3.34 18 2.68 18 2 C12.06 2 6.12 2 0 2 C0 1.34 0 0.68 0 0 Z " fill="#9FC97B" transform="translate(9,159)"/>
<path d="M0 0 C2.31 0 4.62 0 7 0 C7 0.33 7 0.66 7 1 C5.02 1 3.04 1 1 1 C1 1.66 1 2.32 1 3 C1.969375 2.979375 2.93875 2.95875 3.9375 2.9375 C7 3 7 3 8 4 C8.04092937 6.33297433 8.04241723 8.66705225 8 11 C7.34 11 6.68 11 6 11 C6 9.02 6 7.04 6 5 C4.02 5 2.04 5 0 5 C0 3.35 0 1.7 0 0 Z " fill="#A3CB80" transform="translate(126,79)"/>
<path d="M0 0 C0.66 0.33 1.32 0.66 2 1 C2.08076963 3.45898655 2.14037143 5.91533742 2.1875 8.375 C2.21263672 9.07367188 2.23777344 9.77234375 2.26367188 10.4921875 C2.29296875 12.5234375 2.29296875 12.5234375 2 16 C1.01 16.66 0.02 17.32 -1 18 C-1 16.68 -1 15.36 -1 14 C-0.34 14 0.32 14 1 14 C0.67 9.38 0.34 4.76 0 0 Z " fill="#9EC87A" transform="translate(33,166)"/>
<path d="M0 0 C0.66 0 1.32 0 2 0 C1.67 2.64 1.34 5.28 1 8 C0.34 8 -0.32 8 -1 8 C-1.33 8.66 -1.66 9.32 -2 10 C-2 8.35 -2 6.7 -2 5 C-1.34 5 -0.68 5 0 5 C0 3.35 0 1.7 0 0 Z " fill="#C2DCAB" transform="translate(113,180)"/>
</svg>
